<svg preserveAspectRatio="none" xmlns="http://www.w3.org/2000/svg" viewBox="0 0 374.62 38.28"><g id="Layer_2" data-name="Layer 2"><g id="Layer_1-2" data-name="Layer 1"><path d="M374.62,21.36c-3.8,14-20,19.29-35,15.88C328,34.58,317.2,29.93,308.46,21.5a9.23,9.23,0,0,0-1.6-1c-.68,3.71-.88,7.37-2.06,10.69-1.81,5.06-6.42,7.19-10.21,5.37-4.37-2.09-6.09-8.14-3.55-12.71.38,2,.29,4.27,1.24,5.91s2.82,3.41,4.52,3.67c1.5.23,3.83-1.14,4.9-2.5,2.8-3.53,2.38-7.59.67-11.52C298.18,9.7,287.14,4.44,275.26,6.22c-15.17,2.28-29.18,8.21-43.52,13.15-10.91,3.75-21.89,7.47-33.1,10.22-9,2.2-17.43-.23-24.51-6.51,7,2.48,14,2.69,21.31,1.69,13.71-1.89,26.59-6.36,39.35-11.37C246.83,8.67,258.93,4,272,2.57c8.93-1,17.48-.51,25.29,5.19a329.17,329.17,0,0,0,28.2,18.53c10.2,5.94,21.34,8.2,33.07,4.62a23.14,23.14,0,0,0,6.34-3c5.1-3.53,7.2-9,5.62-13.7A13.8,13.8,0,0,0,357,5c-1.6,0-3.2.31-4.71.46,2.66-2.6,7.76-3,12.44-.85a18.58,18.58,0,0,1,9.92,10.89Z"/><path d="M30.07,0c8.11,2,16.14,4.18,23.11,8.9,3.67,2.49,7,5.39,10.54,8.13.82.64,1.59,1.36,2.53,2.17.64-3.47.86-6.64,1.85-9.55,1.78-5.18,5.46-7.42,9-6.05,4.31,1.66,6.35,7.27,4.22,12.42a43.64,43.64,0,0,0-1.27-5.68c-1.54-4.23-6.3-5.09-8.59-1.24a13.38,13.38,0,0,0-1.82,8.57C71.35,26.78,79.42,33.27,88.9,34c9.21.68,17.8-2,26.25-5,15.35-5.43,30.53-11.35,45.92-16.69,8.45-2.94,17.12-3.37,25.4,1a28.09,28.09,0,0,1,5.23,3.81c-17.32-5.69-32.94.79-48.63,6.17-12.11,4.15-24,9.06-36.2,12.77-8.35,2.53-17.24,3.55-25.63-.3-3.08-1.41-5.76-3.8-8.38-6C60.72,19.43,48,10,32,6.36a28.14,28.14,0,0,0-20,2.7c-6.4,3.47-9.28,9.74-7.45,15.28,2.2,6.66,7.49,9.71,15.56,9,.48,0,1,0,2.2,0-3.82,2.45-7.13,2.33-10.67,1.28C4.43,32.44-1.41,23.21.3,17.57c2.45-8,7.63-13.92,16.25-16.23C17.84,1,19.07.45,20.33,0Z"/></g></g></svg>